<svg width="20" height="20" viewBox="0 0 20 20" fill="none" xmlns="http://www.w3.org/2000/svg">
<path d="M9.99967 9.99992C9.08301 9.99992 8.29829 9.67353 7.64551 9.02075C6.99273 8.36797 6.66634 7.58325 6.66634 6.66659C6.66634 5.74992 6.99273 4.9652 7.64551 4.31242C8.29829 3.65964 9.08301 3.33325 9.99967 3.33325C10.9163 3.33325 11.7011 3.65964 12.3538 4.31242C13.0066 4.9652 13.333 5.74992 13.333 6.66659C13.333 7.58325 13.0066 8.36797 12.3538 9.02075C11.7011 9.67353 10.9163 9.99992 9.99967 9.99992ZM3.33301 16.6666V14.3333C3.33301 13.861 3.45454 13.427 3.69759 13.0312C3.94065 12.6353 4.26356 12.3333 4.66634 12.1249C5.52745 11.6944 6.40245 11.3714 7.29134 11.1562C8.18023 10.9409 9.08301 10.8333 9.99967 10.8333C10.9163 10.8333 11.8191 10.9409 12.708 11.1562C13.5969 11.3714 14.4719 11.6944 15.333 12.1249C15.7358 12.3333 16.0587 12.6353 16.3018 13.0312C16.5448 13.427 16.6663 13.861 16.6663 14.3333V16.6666H3.33301ZM4.99967 14.9999H14.9997V14.3333C14.9997 14.1805 14.9615 14.0416 14.8851 13.9166C14.8087 13.7916 14.708 13.6944 14.583 13.6249C13.833 13.2499 13.0761 12.9687 12.3122 12.7812C11.5483 12.5937 10.7775 12.4999 9.99967 12.4999C9.2219 12.4999 8.45106 12.5937 7.68717 12.7812C6.92329 12.9687 6.16634 13.2499 5.41634 13.6249C5.29134 13.6944 5.19065 13.7916 5.11426 13.9166C5.03787 14.0416 4.99967 14.1805 4.99967 14.3333V14.9999ZM9.99967 8.33325C10.458 8.33325 10.8504 8.17006 11.1768 7.84367C11.5031 7.51728 11.6663 7.12492 11.6663 6.66659C11.6663 6.20825 11.5031 5.81589 11.1768 5.4895C10.8504 5.16311 10.458 4.99992 9.99967 4.99992C9.54134 4.99992 9.14898 5.16311 8.82259 5.4895C8.4962 5.81589 8.33301 6.20825 8.33301 6.66659C8.33301 7.12492 8.4962 7.51728 8.82259 7.84367C9.14898 8.17006 9.54134 8.33325 9.99967 8.33325Z" fill="#1D1B20"/>
</svg>
